<?xml version="1.0" encoding="utf-8"?>
<!-- Generator: Adobe Illustrator 21.1.0, SVG Export Plug-In . SVG Version: 6.00 Build 0)  -->
<svg version="1.1" id="Layer_1" xmlns="http://www.w3.org/2000/svg" xmlns:xlink="http://www.w3.org/1999/xlink" x="0px" y="0px"
	 viewBox="0 0 328.2 87.7" style="enable-background:new 0 0 328.2 87.7;" xml:space="preserve">
<g>
	<g>
		<defs>
			<path id="SVGID_1_" d="M48.9,70.9C48.9,70.9,48.8,70.9,48.9,70.9C48.8,70.9,48.8,70.9,48.9,70.9l-0.1,0.3c0,0,0,0,0,0
				c0,0,0,0,0.1,0h0.2c0.2,0,0.4,0.1,0.7,0.1c0.2,0,0.4,0.1,0.6,0.2c0.2,0.1,0.3,0.2,0.4,0.3c0.1,0.1,0.2,0.3,0.2,0.5v9
				c0,0.3-0.1,0.6-0.2,0.7c-0.2,0.2-0.3,0.3-0.6,0.3c-0.2,0.1-0.5,0.1-0.8,0.1c-0.3,0-0.6,0-0.9,0h-0.2c0,0-0.1,0-0.1,0c0,0,0,0,0,0
				v0.2c0,0,0,0,0,0c0,0,0,0,0.1,0h11.1c0,0,0.1,0,0.1,0c0,0,0-0.1,0.1-0.1l0.3-2.9c0,0,0-0.1,0-0.1c0,0-0.1,0-0.1,0
				c-0.2,0-0.3,0.1-0.3,0.2c0,0.2-0.1,0.4-0.1,0.6c-0.1,0.2-0.2,0.5-0.4,0.7c-0.2,0.2-0.4,0.4-0.6,0.5c-0.3,0.2-0.6,0.2-1,0.2H54
				c-0.1,0-0.3,0-0.4,0c-0.1,0-0.3-0.1-0.4-0.1c-0.1-0.1-0.2-0.1-0.2-0.2c-0.1-0.1-0.1-0.2-0.1-0.4v-4.2c0-0.1,0-0.1,0.1-0.1h3.4
				c0.2,0,0.4,0,0.5,0.1c0.2,0,0.3,0.1,0.4,0.2c0.1,0.1,0.2,0.3,0.3,0.5c0.1,0.2,0.1,0.5,0.1,0.8c0,0,0,0,0,0c0,0,0,0,0.1,0h0.2
				c0,0,0,0,0,0c0,0,0,0,0-0.1v-3.6c0,0,0-0.1-0.1-0.1h-0.2c-0.1,0-0.1,0-0.1,0.1c0,0.3,0,0.5-0.1,0.7c-0.1,0.2-0.2,0.3-0.3,0.4
				c-0.1,0.1-0.3,0.2-0.4,0.2c-0.2,0-0.3,0.1-0.5,0.1H53c-0.1,0-0.1,0-0.1-0.1v-4.4c0-0.1,0-0.1,0.1-0.1h4.2c0.2,0,0.4,0.1,0.6,0.2
				c0.1,0.1,0.3,0.2,0.4,0.3c0.1,0.1,0.1,0.3,0.2,0.4c0,0.1,0.1,0.3,0.1,0.4c0,0.1,0,0.3,0.1,0.4c0,0.1,0.1,0.2,0.1,0.3
				c0,0,0,0,0.1,0c0,0,0.1,0,0.1,0c0,0,0.1,0,0.1,0c0,0,0.1,0,0.1-0.1l-0.2-2.5c0-0.1,0-0.2-0.1-0.2c-0.1,0-0.1-0.1-0.3-0.1H48.9z
				 M76.2,76.6C76.1,76.6,76.1,76.5,76.2,76.6c0-0.1,0-0.1,0-0.2c0,0,0-0.1,0-0.1l1.4-3.5c0-0.1,0.1-0.1,0.1-0.2c0,0,0-0.1,0.1-0.1
				c0,0,0.1,0.1,0.1,0.2l1.5,3.5c0,0,0,0.1,0,0.1c0,0,0,0,0,0.1c0,0,0,0.1,0,0.1c0,0-0.1,0-0.1,0h-2.9
				C76.2,76.6,76.2,76.6,76.2,76.6 M77,70.9C77,70.9,77,70.9,77,70.9c0,0.1,0,0.1,0,0.2c0,0.1,0.1,0.1,0.1,0.1c0,0,0,0,0,0
				c0,0,0,0,0,0L73,81.3c-0.1,0.3-0.3,0.5-0.4,0.7c-0.2,0.2-0.3,0.3-0.5,0.4c-0.2,0.1-0.3,0.1-0.5,0.2c-0.2,0-0.3,0-0.4,0
				c-0.1,0-0.1,0-0.1,0.1v0.2c0,0,0,0.1,0.1,0.1h5.1c0,0,0.1,0,0.1,0c0,0,0,0,0,0v-0.2c0,0,0,0,0,0c0,0,0,0-0.1,0h-0.3
				c-0.2,0-0.3,0-0.5,0c-0.2,0-0.4-0.1-0.6-0.1c-0.2-0.1-0.4-0.1-0.5-0.2c-0.1-0.1-0.2-0.2-0.3-0.4c0,0,0-0.1,0-0.1v-0.1l1.5-3.7
				c0,0,0,0,0-0.1c0,0,0.1-0.1,0.1-0.1c0,0,0.1-0.1,0.2-0.1c0.1,0,0.1-0.1,0.2-0.1h3.5c0.1,0,0.1,0,0.2,0.1c0.1,0,0.1,0.1,0.1,0.1
				c0,0,0.1,0.1,0.1,0.1c0,0,0,0.1,0,0.1l1.5,3.6c0,0,0,0.1,0,0.1c0,0.1,0,0.3-0.1,0.4c-0.1,0.1-0.2,0.2-0.3,0.2
				c-0.1,0.1-0.3,0.1-0.4,0.1c-0.2,0-0.3,0.1-0.5,0.1c-0.2,0-0.3,0-0.4,0c-0.1,0-0.2,0-0.3,0c0,0,0,0-0.1,0c0,0-0.1,0-0.1,0
				c0,0-0.1,0-0.1,0c0,0,0,0,0,0v0.2c0,0,0,0,0,0c0,0,0,0,0.1,0h6.1c0,0,0.1,0,0.1,0c0,0,0,0,0,0v-0.2c0,0,0,0,0-0.1c0,0,0,0-0.1,0
				c-0.1,0-0.3,0-0.5-0.1c-0.2,0-0.3-0.1-0.4-0.1c-0.2-0.1-0.4-0.2-0.5-0.2c-0.1-0.1-0.2-0.2-0.3-0.3c-0.1-0.1-0.1-0.2-0.2-0.3
				c-0.1-0.1-0.1-0.3-0.2-0.4l-4.2-10.1c0,0,0,0-0.1-0.1c0,0,0,0-0.1,0H77z M96.1,70.9C96.1,70.9,96,70.9,96.1,70.9
				C96,70.9,96,70.9,96.1,70.9L96,71.1c0,0,0,0,0,0c0,0,0,0,0.1,0h0.2c0.1,0,0.3,0,0.5,0c0.2,0,0.4,0.1,0.7,0.2
				c0.2,0.1,0.4,0.2,0.6,0.3c0.2,0.1,0.2,0.3,0.2,0.5v9c0,0.2-0.1,0.4-0.2,0.6c-0.1,0.2-0.3,0.3-0.5,0.4c-0.1,0.1-0.2,0.1-0.4,0.1
				c-0.1,0-0.3,0.1-0.4,0.1c-0.1,0-0.3,0-0.4,0c-0.1,0-0.2,0-0.2,0H96c0,0-0.1,0-0.1,0c0,0,0,0,0,0v0.2c0,0,0,0,0,0c0,0,0,0,0.1,0
				H106c0,0,0.1,0,0.1,0c0,0,0.1-0.1,0.1-0.1l1.5-2.5c0,0,0-0.1,0-0.1c0-0.1,0-0.1-0.1-0.1c0,0-0.1,0-0.1,0c0,0-0.1,0-0.1,0.1
				c-0.1,0.1-0.2,0.1-0.3,0.2c-0.1,0.1-0.2,0.2-0.3,0.4c-0.1,0.1-0.3,0.3-0.4,0.5c-0.2,0.2-0.3,0.3-0.5,0.4
				c-0.2,0.1-0.4,0.2-0.6,0.3c-0.2,0.1-0.4,0.1-0.7,0.1h-3.9c-0.1,0-0.3,0-0.4-0.1c-0.1-0.1-0.2-0.2-0.2-0.3v-9.5
				c0-0.3,0-0.4,0.1-0.5c0-0.1,0.1-0.2,0.3-0.2c0.2-0.1,0.5-0.1,0.8-0.2c0.3,0,0.7-0.1,1-0.1h0.4c0,0,0.1,0,0.1,0c0,0,0,0,0,0v-0.2
				c0,0,0,0,0,0c0,0,0,0-0.1,0H96.1z M153.5,70.9c-0.1,0-0.1,0-0.1,0c0,0,0,0.1,0,0.1c0,0.1,0,0.1,0,0.1c0,0,0.1,0.1,0.1,0.1
				c0.1,0,0.3,0,0.4,0.1c0.1,0,0.3,0.1,0.4,0.1c0.1,0,0.2,0.1,0.3,0.2c0.1,0.1,0.1,0.2,0.1,0.4c0,0.2-0.1,0.3-0.2,0.5
				c-0.1,0.2-0.2,0.3-0.3,0.4l-2.7,3.9c-0.1,0.1-0.1,0.1-0.1,0.2c0,0-0.1,0.1-0.1,0.1c-0.1,0-0.1,0-0.1,0c0,0-0.1-0.1-0.1-0.2
				l-3.4-4.6c-0.1-0.1-0.1-0.2-0.1-0.4c0-0.2,0-0.3,0.1-0.4c0.1-0.1,0.2-0.1,0.4-0.2c0.1,0,0.3-0.1,0.4-0.1c0.2,0,0.3,0,0.4,0
				c0.1,0,0.2-0.1,0.2-0.2c0,0,0-0.1,0-0.1c0,0-0.1,0-0.1,0h-5.7c-0.1,0-0.1,0-0.1,0.1c0,0,0,0.1,0,0.1c0,0.1,0,0.1,0,0.1
				c0,0,0.1,0.1,0.1,0.1c0,0,0.1,0,0.2,0c0.1,0,0.1,0,0.2,0c0.1,0,0.2,0,0.2,0c0.1,0,0.1,0,0.2,0c0.2,0,0.4,0.1,0.6,0.2
				c0.2,0.1,0.4,0.2,0.5,0.4c0.2,0.1,0.3,0.3,0.4,0.4c0.1,0.2,0.3,0.3,0.4,0.5l4.1,5.6c0,0,0,0,0,0.1c0,0,0,0,0,0.1v2.8
				c0,0.3-0.1,0.6-0.3,0.8c-0.2,0.2-0.6,0.3-1.1,0.3c-0.1,0-0.1,0-0.2,0c-0.1,0-0.2,0-0.2,0c-0.1,0-0.1,0-0.2,0.1
				c0,0-0.1,0.1-0.1,0.1v0.1c0,0.1,0,0.1,0.1,0.1c0.1,0,0.1,0,0.2,0h5.4c0.1,0,0.2,0,0.2,0c0.1,0,0.1-0.1,0.1-0.1v-0.1
				c0,0,0-0.1-0.1-0.1c-0.1,0-0.1,0-0.2-0.1c-0.1,0-0.1,0-0.2,0c-0.1,0-0.1,0-0.2,0c-0.5-0.1-0.9-0.2-1.1-0.3
				c-0.2-0.2-0.3-0.4-0.3-0.7v-3.2l3.9-5.8c0,0,0,0,0.1-0.1c0.1-0.1,0.1-0.1,0.1-0.1c0.2-0.2,0.5-0.4,0.7-0.5
				c0.2-0.1,0.5-0.2,0.9-0.3c0.1,0,0.1,0,0.2,0c0.1,0,0.1,0,0.2,0c0,0,0.1,0,0.1-0.1c0,0,0-0.1,0-0.1c0,0,0-0.1,0-0.1
				c0,0-0.1-0.1-0.1-0.1H153.5z M263,70.9C263,70.9,263,70.9,263,70.9l-0.1,0.3c0,0,0,0.1,0.1,0.1c0,0,0.1,0,0.2,0
				c0.1,0,0.2,0,0.4,0c0.4,0.1,0.7,0.1,0.8,0.3c0.2,0.1,0.3,0.3,0.4,0.5c0.1,0.2,0.1,0.4,0.2,0.6c0,0.2,0,0.4,0,0.6v5.4
				c0,0.6-0.1,1.1-0.4,1.6c-0.2,0.5-0.6,0.8-1,1.2c-0.4,0.3-1,0.5-1.5,0.7c-0.6,0.2-1.2,0.2-1.9,0.2c-0.1,0-0.2,0-0.3,0
				c-0.1,0-0.3,0-0.4,0c-0.1,0-0.3,0-0.4,0c-0.1,0-0.2,0-0.3,0c0,0,0,0-0.1,0c0,0,0,0,0,0c0,0,0,0,0,0c-0.5-0.1-1-0.3-1.4-0.5
				c-0.4-0.2-0.7-0.5-1-0.8c-0.3-0.3-0.5-0.7-0.6-1.1c-0.1-0.4-0.2-0.8-0.2-1.3v-6.1c0-0.3,0.1-0.5,0.2-0.6c0.1-0.2,0.3-0.3,0.4-0.3
				c0.2-0.1,0.4-0.1,0.6-0.2c0.2,0,0.4,0,0.6,0c0,0,0.1,0,0.1,0c0,0,0,0,0,0v-0.2c0,0,0,0,0,0c0,0,0,0-0.1,0H252c0,0-0.1,0-0.1,0.1
				v0.2c0,0,0,0.1,0.1,0.1c0.2,0,0.4,0,0.6,0.1c0.2,0,0.4,0.1,0.5,0.2c0.2,0.1,0.3,0.2,0.4,0.3c0.1,0.1,0.1,0.3,0.1,0.4V79
				c0,0.5,0.1,0.9,0.3,1.3c0.2,0.4,0.4,0.7,0.8,1c0.3,0.3,0.7,0.6,1.1,0.8c0.4,0.2,0.9,0.4,1.4,0.5c0.5,0.1,1,0.2,1.5,0.3
				c0.5,0.1,1,0.1,1.5,0.1c1,0,1.9-0.1,2.6-0.4c0.8-0.2,1.4-0.6,1.9-1c0.5-0.4,0.9-1,1.1-1.6c0.2-0.6,0.4-1.4,0.4-2.2v-5.6
				c0-0.1,0-0.1,0.1-0.2c0-0.1,0.1-0.2,0.1-0.3c0.1-0.1,0.1-0.2,0.2-0.3c0.1-0.1,0.2-0.2,0.3-0.2c0.1,0,0.2-0.1,0.4-0.1
				c0.2,0,0.4,0,0.6,0c0,0,0,0,0.1,0c0,0,0,0,0,0v-0.2c0,0,0,0,0,0c0,0,0,0-0.1,0H263z M28.5,77c-0.1,0-0.2,0-0.3,0
				c-0.1,0-0.2,0-0.2,0c-0.1,0-0.1,0-0.1,0c-0.1,0-0.1,0-0.1-0.1c0,0,0-0.1,0-0.1l0-0.3v-5.2c0-0.1,0-0.1,0.1-0.1c0.1,0,0.1,0,0.2,0
				c0.1,0,0.2,0,0.3,0c0.1,0,0.2,0,0.3,0c0.1,0,0.2,0,0.2,0c0.1,0,0.2,0,0.3,0c0.5,0,1,0.1,1.4,0.2c0.4,0.1,0.8,0.3,1.1,0.6
				c0.3,0.2,0.6,0.6,0.7,0.9c0.2,0.4,0.3,0.8,0.3,1.2c0,0.4-0.1,0.9-0.2,1.2c-0.1,0.4-0.3,0.7-0.6,0.9c-0.3,0.2-0.7,0.4-1.1,0.6
				c-0.5,0.1-1,0.2-1.7,0.2C28.7,77,28.6,77,28.5,77 M29.2,70.7c-0.7,0-1.5,0-2.2,0c-0.7,0-1.5,0-2.2,0.1c-0.3,0-0.4,0-0.6,0
				c-0.1,0-0.2,0-0.3,0c-0.1,0-0.1,0-0.1,0h0c0,0-0.1,0-0.1,0c0,0,0,0,0,0v0.2c0,0,0,0,0,0c0,0,0,0,0.1,0h0.4c0.1,0,0.2,0,0.3,0
				c0.2,0,0.3,0.1,0.5,0.2c0.2,0.1,0.3,0.2,0.5,0.4c0.1,0.2,0.2,0.4,0.2,0.7v9c0,0.3-0.1,0.5-0.2,0.6c-0.2,0.2-0.4,0.3-0.8,0.4
				c0,0-0.1,0-0.2,0c-0.1,0-0.2,0-0.3,0c-0.1,0-0.2,0-0.3,0c-0.1,0-0.1,0-0.2,0c0,0-0.1,0-0.1,0c0,0,0,0,0,0v0.1c0,0.1,0,0.1,0,0.1
				c0,0,0,0,0.1,0h6.1c0,0,0.1,0,0.1,0c0,0,0,0,0,0v-0.2c0,0,0,0,0,0c0,0,0,0-0.1,0c-0.1,0-0.1,0-0.2,0c-0.1,0-0.2,0-0.3,0
				c-0.1,0-0.2,0-0.2,0c-0.1,0-0.1,0-0.2,0c-0.3,0-0.5-0.1-0.6-0.1c-0.2-0.1-0.3-0.1-0.4-0.2c-0.1-0.1-0.2-0.2-0.2-0.3
				c0-0.1-0.1-0.2-0.1-0.4v-3.9c0,0,0-0.1,0-0.1c0,0,0,0,0,0c0,0,0.1,0,0.1,0h0.1l2.4,0.1c0,0,0,0,0.1,0l2.6,3.4
				c0.2,0.3,0.4,0.5,0.6,0.7c0.2,0.2,0.4,0.4,0.6,0.6c0.4,0.3,0.9,0.6,1.4,0.7c0.5,0.1,1,0.2,1.6,0.2c0.1,0,0.2,0,0.2,0
				c0.1,0,0.1-0.1,0.1-0.2c0,0,0-0.1,0-0.1c0,0,0,0-0.1,0c-0.4-0.2-0.8-0.4-1.2-0.6c-0.4-0.3-0.7-0.6-0.9-0.9L32,77
				c0.3-0.1,0.7-0.3,0.9-0.4c0.3-0.2,0.5-0.4,0.7-0.6c0.2-0.2,0.4-0.5,0.5-0.7c0.1-0.3,0.2-0.6,0.2-0.9c0-0.5-0.1-1-0.3-1.4
				c-0.2-0.4-0.5-0.8-0.9-1.1c-0.4-0.3-0.8-0.6-1.3-0.7c-0.5-0.2-1-0.3-1.6-0.3H29.2z M206.8,77c-0.1,0-0.2,0-0.3,0
				c-0.1,0-0.2,0-0.2,0c-0.1,0-0.1,0-0.1,0c-0.1,0-0.1,0-0.1-0.1c0,0,0-0.1,0-0.1l0-0.3v-5.2c0-0.1,0-0.1,0.1-0.1c0.1,0,0.1,0,0.2,0
				c0.1,0,0.2,0,0.3,0c0.1,0,0.2,0,0.3,0c0.1,0,0.2,0,0.2,0c0.1,0,0.2,0,0.3,0c0.5,0,1,0.1,1.4,0.2c0.4,0.1,0.8,0.3,1.1,0.6
				c0.3,0.2,0.6,0.6,0.7,0.9c0.2,0.4,0.3,0.8,0.3,1.2c0,0.4-0.1,0.9-0.2,1.2c-0.1,0.4-0.3,0.7-0.6,0.9c-0.3,0.2-0.7,0.4-1.1,0.6
				c-0.5,0.1-1,0.2-1.7,0.2C207,77,206.9,77,206.8,77 M207.5,70.7c-0.7,0-1.5,0-2.2,0c-0.7,0-1.5,0-2.2,0.1c-0.3,0-0.4,0-0.6,0
				c-0.1,0-0.2,0-0.3,0c-0.1,0-0.1,0-0.1,0h0c0,0-0.1,0-0.1,0c0,0,0,0,0,0v0.2c0,0,0,0,0,0c0,0,0,0,0.1,0h0.4c0.1,0,0.2,0,0.3,0
				c0.2,0,0.3,0.1,0.5,0.2c0.2,0.1,0.3,0.2,0.5,0.4c0.1,0.2,0.2,0.4,0.2,0.7v9c0,0.3-0.1,0.5-0.2,0.6c-0.1,0.2-0.4,0.3-0.8,0.4
				c0,0-0.1,0-0.2,0c-0.1,0-0.2,0-0.3,0c-0.1,0-0.2,0-0.3,0c-0.1,0-0.1,0-0.2,0c0,0-0.1,0-0.1,0c0,0,0,0,0,0v0.1c0,0.1,0,0.1,0,0.1
				c0,0,0,0,0.1,0h6.1c0,0,0.1,0,0.1,0c0,0,0,0,0,0v-0.2c0,0,0,0,0,0c0,0,0,0-0.1,0c-0.1,0-0.1,0-0.2,0c-0.1,0-0.2,0-0.3,0
				c-0.1,0-0.2,0-0.2,0c-0.1,0-0.1,0-0.2,0c-0.3,0-0.5-0.1-0.6-0.1c-0.2-0.1-0.3-0.1-0.4-0.2c-0.1-0.1-0.2-0.2-0.2-0.3
				c0-0.1-0.1-0.2-0.1-0.4v-3.9c0,0,0-0.1,0-0.1c0,0,0,0,0,0c0,0,0.1,0,0.1,0h0.1l2.4,0.1c0,0,0,0,0,0l2.6,3.4
				c0.2,0.3,0.4,0.5,0.6,0.7c0.2,0.2,0.4,0.4,0.6,0.6c0.4,0.3,0.9,0.6,1.4,0.7c0.5,0.1,1,0.2,1.6,0.2c0.1,0,0.2,0,0.2,0
				c0.1,0,0.1-0.1,0.1-0.2c0,0,0-0.1,0-0.1c0,0,0,0-0.1,0c-0.4-0.2-0.8-0.4-1.2-0.6c-0.4-0.3-0.7-0.6-0.9-0.9l-3-4.2
				c0.3-0.1,0.7-0.3,0.9-0.4c0.3-0.2,0.5-0.4,0.7-0.6c0.2-0.2,0.4-0.5,0.5-0.7c0.1-0.3,0.2-0.6,0.2-0.9c0-0.5-0.1-1-0.3-1.4
				c-0.2-0.4-0.5-0.8-0.9-1.1c-0.4-0.3-0.8-0.6-1.3-0.7c-0.5-0.2-1-0.3-1.6-0.3H207.5z M284.3,77.3c-0.1,0-0.2,0-0.3,0
				c-0.1,0-0.2,0-0.2,0c-0.1,0-0.1,0-0.1,0c-0.1,0-0.1,0-0.1-0.1c0,0,0-0.1,0-0.1l0-0.3v-5.5c0-0.1,0-0.1,0.1-0.1c0.1,0,0.1,0,0.2,0
				c0.1,0,0.2,0,0.3,0c0.1,0,0.2,0,0.3,0c0.1,0,0.2,0,0.2,0c0.1,0,0.2,0,0.3,0c0.5,0,1,0.1,1.4,0.2c0.4,0.1,0.8,0.3,1.1,0.6
				c0.3,0.2,0.5,0.6,0.7,0.9c0.2,0.4,0.2,0.8,0.2,1.3c0,0.5-0.1,0.9-0.2,1.3c-0.2,0.4-0.4,0.7-0.7,1c-0.3,0.3-0.7,0.5-1.1,0.7
				c-0.4,0.2-0.9,0.3-1.5,0.3C284.5,77.3,284.4,77.3,284.3,77.3 M285,70.7c-0.7,0-1.5,0-2.2,0c-0.7,0-1.5,0-2.2,0.1
				c-0.3,0-0.5,0-0.6,0c-0.2,0-0.3,0-0.4,0c-0.1,0-0.2,0-0.2,0h-0.1c-0.1,0-0.1,0-0.1,0.1c0,0,0,0.1,0,0.1c0,0.1,0,0.1,0,0.1
				c0,0,0.1,0.1,0.2,0.1h0.4c0.3,0,0.5,0,0.7,0c0.2,0,0.4,0.1,0.5,0.2c0.1,0.1,0.2,0.2,0.3,0.4c0.1,0.2,0.1,0.4,0.1,0.7v9
				c0,0.3-0.1,0.5-0.2,0.6c-0.1,0.2-0.4,0.3-0.8,0.4c-0.1,0-0.2,0-0.3,0.1c-0.1,0-0.2,0.1-0.3,0.1c0,0-0.1,0-0.1,0c0,0,0,0,0,0v0.1
				c0,0.1,0,0.1,0,0.1c0,0,0,0,0.1,0h6c0,0,0.1,0,0.1,0c0,0,0,0,0,0v-0.2c0,0,0,0,0,0c0,0,0,0-0.1,0c-0.1,0-0.1,0-0.2,0
				c-0.1,0-0.2,0-0.3,0c-0.1,0-0.2,0-0.3,0c-0.1,0-0.2,0-0.2,0c-0.3,0-0.5-0.1-0.6-0.1c-0.2-0.1-0.3-0.1-0.4-0.2
				c-0.1-0.1-0.2-0.2-0.2-0.3c0-0.1-0.1-0.2-0.1-0.4v-3.5c0,0,0-0.1,0-0.1c0,0,0,0,0,0c0,0,0.1,0,0.1,0h0.1l2.8,0.1
				c0.3,0,0.6,0,0.9-0.1c0.3-0.1,0.6-0.2,0.9-0.4c0.3-0.2,0.5-0.4,0.8-0.6c0.2-0.2,0.5-0.5,0.6-0.7c0.2-0.3,0.3-0.6,0.4-0.9
				c0.1-0.3,0.2-0.6,0.2-0.9c0-0.5-0.1-1-0.3-1.4c-0.2-0.4-0.5-0.8-0.9-1.1c-0.4-0.3-0.8-0.6-1.3-0.7c-0.5-0.2-1.1-0.3-1.6-0.3H285z
				 M181.6,70.8c-0.6,0.1-1.2,0.4-1.7,0.6c-0.5,0.3-1,0.6-1.5,1c-0.5,0.4-0.8,0.8-1.2,1.3c-0.3,0.5-0.6,1-0.8,1.5
				c-0.2,0.5-0.3,1.1-0.3,1.7c0,1,0.2,1.9,0.6,2.6c0.4,0.8,0.9,1.4,1.6,2c0.7,0.5,1.5,1,2.4,1.3c0.9,0.3,1.9,0.4,2.9,0.4
				c0.4,0,0.8,0,1.3-0.1c0.4-0.1,0.9-0.1,1.3-0.2c0.4-0.1,0.9-0.2,1.3-0.3c0.4-0.1,0.8-0.3,1.2-0.4c0.1,0,0.2-0.1,0.2-0.1
				c0,0,0.1-0.1,0.1-0.1v-2.8c0-0.2,0.1-0.4,0.2-0.5c0.1-0.1,0.2-0.2,0.4-0.3c0.2-0.1,0.3-0.1,0.5-0.2c0.2,0,0.4-0.1,0.6-0.2
				c0,0,0.1,0,0.1-0.1c0,0,0-0.1,0-0.1c0,0,0-0.1,0-0.1c0,0,0-0.1-0.1-0.1h-6.1c0,0-0.1,0-0.1,0.1c0,0,0,0.1,0,0.1c0,0,0,0.1,0,0.1
				c0,0,0,0,0.1,0c0.5,0,0.9,0,1.2,0.1c0.3,0.1,0.6,0.2,0.8,0.3c0.2,0.1,0.3,0.3,0.4,0.5c0.1,0.2,0.1,0.4,0.1,0.7v2.3
				c-0.1,0.1-0.3,0.3-0.5,0.4c-0.2,0.1-0.5,0.2-0.7,0.2c-0.3,0.1-0.5,0.1-0.8,0.1c-0.3,0-0.5,0-0.7,0c-0.6,0-1.2-0.1-1.7-0.2
				c-0.5-0.2-1-0.4-1.4-0.6c-0.4-0.3-0.8-0.6-1.1-1c-0.3-0.4-0.6-0.8-0.8-1.2c-0.2-0.4-0.4-0.9-0.5-1.4c-0.1-0.5-0.2-1-0.2-1.4
				c0-0.5,0.1-0.9,0.2-1.4c0.1-0.5,0.3-0.9,0.5-1.3c0.2-0.4,0.5-0.8,0.8-1.1c0.3-0.4,0.7-0.7,1.1-0.9c0.4-0.3,0.9-0.5,1.4-0.6
				c0.5-0.1,1.1-0.2,1.7-0.2c2.1,0,3.5,0.9,4.2,2.7c0,0,0,0.1,0,0.1c0,0.1,0,0.1,0,0.2c0,0.1,0,0.1,0.1,0.2c0,0.1,0.1,0.1,0.1,0.1h0
				c0.1,0,0.1,0,0.2,0c0,0,0.1-0.1,0.1-0.1v-2.8c0,0,0-0.1,0-0.1c0,0-0.1,0-0.1,0h-0.2c-0.1,0-0.1,0-0.1,0c0,0,0,0-0.1,0
				c0,0,0,0-0.1,0c0,0-0.1,0-0.1,0h-0.1c0,0-0.2,0-0.4-0.1c-0.3-0.1-0.6-0.2-1-0.3c-0.4-0.1-0.9-0.2-1.4-0.3c-0.5-0.1-1-0.1-1.5-0.1
				C182.9,70.5,182.3,70.6,181.6,70.8 M130.7,70.6C130.7,70.6,130.7,70.6,130.7,70.6c-0.1,0.1-0.2,0.1-0.2,0.2c0,0-0.1,0-0.1,0.1
				c-0.1,0-0.2,0-0.2,0.1c-0.1,0-0.1,0-0.2,0h-10.8c-0.1,0-0.2,0-0.2,0c-0.1,0-0.1,0-0.2-0.1c0,0-0.1,0-0.1-0.1c0,0-0.1-0.1-0.1-0.1
				c0,0-0.1-0.1-0.1-0.1c0,0-0.1,0-0.1,0c-0.1,0-0.2,0-0.2,0.1c0,0.1,0,0.1-0.1,0.2l-0.4,2.7v0.3c0,0,0,0,0.1,0h0.2c0,0,0.1,0,0.1,0
				c0,0,0-0.1,0-0.1c0-0.1,0-0.1,0-0.2c0-0.2,0.1-0.4,0.2-0.5c0.1-0.2,0.1-0.4,0.2-0.5c0.1-0.2,0.2-0.3,0.4-0.4
				c0.2-0.1,0.4-0.2,0.6-0.3h3.8c0.1,0,0.1,0,0.2,0c0.1,0,0.1,0.1,0.1,0.2v9.4c0,0.2-0.1,0.3-0.1,0.5c-0.1,0.1-0.2,0.3-0.4,0.4
				c-0.2,0.1-0.4,0.2-0.6,0.2c-0.2,0.1-0.5,0.1-0.7,0.1c-0.1,0-0.2,0-0.3,0h-0.3c0,0-0.1,0-0.1,0c0,0,0,0,0,0v0.2c0,0,0,0,0,0
				c0,0,0,0,0.1,0h6.9c0,0,0.1,0,0.1,0c0,0,0,0,0,0v-0.2c0,0,0,0,0,0c0,0,0,0-0.1,0h-0.3c-0.1,0-0.2,0-0.3,0c-0.3,0-0.5-0.1-0.7-0.1
				c-0.2-0.1-0.4-0.1-0.6-0.2c-0.2-0.1-0.3-0.2-0.4-0.4c-0.1-0.1-0.1-0.3-0.1-0.5v-9.4c0-0.1,0-0.2,0.1-0.2c0.1,0,0.1,0,0.2,0h3.8
				c0.2,0,0.4,0.1,0.6,0.3c0.2,0.1,0.3,0.3,0.4,0.4c0.1,0.2,0.2,0.3,0.2,0.5c0.1,0.2,0.1,0.4,0.2,0.5c0,0.1,0,0.1,0,0.2
				c0,0.1,0,0.1,0,0.1c0,0,0,0,0.1,0h0.2c0,0,0.1,0,0.1,0v-0.3l-0.4-2.7c0-0.1,0-0.1-0.1-0.2c0-0.1-0.1-0.1-0.2-0.1
				C130.8,70.5,130.8,70.5,130.7,70.6 M232,82.2c-0.5-0.2-1-0.4-1.5-0.7c-0.4-0.3-0.8-0.6-1.2-1c-0.3-0.4-0.6-0.8-0.9-1.3
				c-0.2-0.4-0.4-0.9-0.5-1.4c-0.1-0.5-0.2-1-0.2-1.4c0-0.4,0.1-0.9,0.2-1.3c0.1-0.4,0.3-0.9,0.5-1.3c0.2-0.4,0.4-0.8,0.7-1.1
				c0.3-0.3,0.6-0.6,1-0.9c0.4-0.2,0.8-0.4,1.3-0.6c0.5-0.1,1-0.2,1.6-0.2c0.9,0,1.8,0.2,2.5,0.5c0.7,0.3,1.4,0.8,1.9,1.3
				c0.5,0.6,0.9,1.2,1.2,1.9c0.3,0.7,0.4,1.5,0.4,2.2c0,0.7-0.1,1.4-0.3,2c-0.2,0.7-0.5,1.2-1,1.7c-0.4,0.5-1,0.9-1.6,1.2
				c-0.7,0.3-1.4,0.5-2.3,0.5C233.1,82.5,232.5,82.4,232,82.2 M231.5,70.7c-0.7,0.1-1.3,0.4-1.9,0.6c-0.6,0.3-1.1,0.6-1.6,1
				c-0.5,0.4-0.9,0.8-1.2,1.3c-0.3,0.5-0.6,1-0.8,1.5c-0.2,0.5-0.3,1.1-0.3,1.7c0,0.9,0.1,1.7,0.4,2.3c0.3,0.7,0.7,1.2,1.1,1.7
				c0.5,0.5,1,0.8,1.6,1.2c0.6,0.3,1.1,0.5,1.7,0.7c0.6,0.2,1.1,0.3,1.6,0.4c0.5,0.1,0.9,0.1,1.2,0.1c0.8,0,1.5-0.1,2.2-0.3
				c0.7-0.2,1.3-0.4,1.9-0.7c0.6-0.3,1.1-0.7,1.6-1.1c0.5-0.4,0.9-0.9,1.2-1.3c0.3-0.5,0.6-1,0.7-1.5c0.2-0.5,0.3-1.1,0.3-1.6
				c0-0.6-0.1-1.1-0.3-1.6c-0.2-0.5-0.4-1-0.8-1.5c-0.3-0.5-0.7-0.9-1.2-1.2c-0.5-0.4-0.9-0.7-1.5-1c-0.5-0.3-1.1-0.5-1.8-0.6
				c-0.6-0.1-1.3-0.2-1.9-0.2C233,70.5,232.2,70.6,231.5,70.7"/>
		</defs>
		<linearGradient id="SVGID_2_" gradientUnits="userSpaceOnUse" x1="23.5935" y1="76.8053" x2="290.1487" y2="76.8053">
			<stop  offset="6.134970e-03" style="stop-color:#568C45"/>
			<stop  offset="0.2129" style="stop-color:#5A8F44"/>
			<stop  offset="0.4171" style="stop-color:#659644"/>
			<stop  offset="0.6203" style="stop-color:#77A342"/>
			<stop  offset="0.8216" style="stop-color:#8FB63E"/>
			<stop  offset="1" style="stop-color:#ABD037"/>
		</linearGradient>
		<use xlink:href="#SVGID_1_"  style="overflow:visible;fill:url(#SVGID_2_);"/>
		<clipPath id="SVGID_3_">
			<use xlink:href="#SVGID_1_"  style="overflow:visible;"/>
		</clipPath>
	</g>
	<g>
		<defs>
			<path id="SVGID_4_" d="M273.1,15.7c-1.4,0.3-2,0.7-3,1.7c1.1,1.1,1.8,1.5,3.2,2.1c2.6,1,4.6,1,7.1,0l-2.1-2.3
				c-1.1-1.1-2.3-1.6-3.7-1.6C274.2,15.5,273.7,15.5,273.1,15.7 M24.5,39.6c1.7,0.7,2.7,1.5,3,3.1c0.7,2.4-1.6,3.8-3.9,5.6
				c-2.5,2.1-4.9,2.7-8.6,2.7c0,0-2.7,0-2-3.2c-1.4,1.1,2.7-6,5-7.3c0.9-0.5,2-0.5,3.1-0.4c0.3,0,0.7,0,1,0
				C23,40.1,23.8,40,24.5,39.6 M25.9,6.4c-0.6,0.3-1.7,2.2-2.3,2.6c-0.5,0.4-0.8,0.1-1.5,1.9c-0.5,1.2-1,2.5-1.5,4
				c-2.7,7.8-5.7,18.7-5.7,18.7c-1.9,3.8-1.8,4.7-4,8.4c-2,3.5-4.2,5.3-5.4,9.1c-0.8,3-1,4.9-0.7,8c2.9,0.8,4.7,1,7.7,0.3
				c2.7-0.5,4.2-1.2,6.3-2.8c4.2-2,6.6-3.6,10-6.5c1.9-1.8,3.1-3,4.7-4.9l1.1-3.6l-1.1-5.2c-1.1-1.5-1.8-2.2-3.5-3.1
				c-3-1.6-5.5-2-8.9-1.1c0.2-3.9,0.6-6.3,1.6-10.1c1.2-5.1,2.5-8.6,4.7-12.6C28,8.1,29.2,7,28.9,5.6C28.9,5.6,27.4,5.8,25.9,6.4
				 M286.3,51.7c-0.5-2.4,1.5-8.2,7.3-9.2c9.4-6.1,8.8-0.5,8.8-0.5l-3.4,5.7l-7.3,5.9L286.3,51.7z M57.7,52.6
				c-1.1-0.5-1.9-0.8-2.7-1.8l0.4-9.8c0.1-2.1,2-3.6,4.2-3.6c2.1,0,4.2-0.2,4.7,1.5l4.3,1.5c0.7,0.8,1,1.4,1.3,2.4
				c0.5,1.7,0.5,2.8,0,4.5c-1.2,1.8-2.1,2.7-3.9,3.9c-1.1,0.6-1.8,1-3.1,1.5c-1,0.4-1.8,0.6-2.6,0.6C59.5,53.1,58.6,52.9,57.7,52.6
				 M142.4,38.8c0.8-1.6,2.1-1.8,3.8-2.3c1.5-0.3,2.7-0.9,4.2,0c0.8,0.4,1.4,1,1.6,1.8c0.4,1.6-0.7,2.1-1.8,3.4
				c-0.4,0.4-1.2,0.6-2.2,0.6C145.3,42.4,141.5,40.8,142.4,38.8 M107,4.6c-0.7,0-4.3,0.2-4.9,3c-0.7,3.1-1.9,22.9-1.9,22.9l-4.6,8.6
				l-5.5,1.7h-0.5c-3.3,0.8-8.8-2.7-12.1-3.1c-1.9-0.3-0.8-1.2-2.3-1.8l-4.6-2.4l-4-3c-2.2,0-3.2,0.1-5.3,0.4
				c-3.3,0.2-5.4,0.7-8.6,1.6l-8.1,6.2l-5,2.1l-1,2.4c2.2-0.3,2.9-0.5,3.1-0.6c0,0.2,0.5,0.7,4.3,1.7c-0.9,3.3,0.1,1.8,1.3,5.1
				c0.9,2.6,1.9,4,3.9,5.9c1.7,1.4,3.1,2.2,5.4,2.7c3.5,0.9,6,0.7,9.3-0.9c3.1-0.7,4.6-1.8,6.9-3.9c1.8-1.7,2.6-2.8,3.3-5l1.6-4.7
				c2.1,0,2.3,1.4,4.2,1.3c0.9-0.1,1.7,0,2.5,0c0.7,0,1.5,0.1,2.2,0l0,0.1l8.7,0.4c0,0-1.4,1.5-1.2,6.6c-1.2,4.1,1.4,3.9,1.4,3.9
				l2.8-2.4c1.1-2.2,2.7-4,4.8-5.6c1.3-0.9,5.4-4.7,7.4-6.4c2.1-1.8,2.7-1,2.9-0.3c0.1,0.5,0.1,0.9,0.3,0.7c0,1.9-3.3,9.3-2.4,11.1
				c0.9,2.2,1.8,3.6,3.8,5c2.9,1.9,5.4,1.9,8.9,1.5c3.2-0.3,7.8-0.9,10.7-2.6c0.8,0.6,1.5,1.1,2.6,1.9c2,1.3,3.1,2.4,5.6,2.8
				c2.7,0.3,4.2-0.4,6.8-1.1c3.1-0.8,8.5-1.9,11.2-3.4l0.1-0.2c2-1.2,8.5-4.9,13.3-7.9c6.7-4.3,15.7-12.5,15.7-12.5l5.2-2.9
				c0,0,0.1,2.6,0,4.2c-0.2,5.4,0.1,8.4-1.5,13.7c-0.8,2.4-1.4,3.8-2.5,6.2c0,0,0.8,1.8,1.9,2.3c1.5,0.5,4-1.7,4-1.7
				c1.1-2.9,1.8-4.6,3.8-7c4.4-5.7,12.8-11.5,15.3-12.9c2.5-1.4,2.7,0.5,2.7,0.5c-1,4.9-1.3,7.8-2.7,12.6c-0.9,2.8-2.5,7-2.5,7h6.2
				c5.6-2.8,8.7-4.8,13.3-8.7c0,0,2.8-2.8,5.6-4.8c2.8-2,2.5,0,2.5,0s-0.3,4.1,1.2,6.2c1.7,2.4,4.1,3.6,7.2,3.9
				c5,0.3,8.1,0.5,13.1,1.1l2.2-1c0.3,0.3,0.6,0.6,1,0.9c1.5,1.2,2.8,1.6,4.7,1.6c2.3,0.1,6.9-0.8,8.6-2.2l2.3-0.5
				c0.5,0.5,1,0.9,1.6,1.3c2,1.5,3.7,1.9,6.2,1.9c2.8,0,4.6-0.6,6.6-2.4l7.1-3.9c0.8,1.9,2,3.2,3.9,4.4c2.3,1.3,7.2,0.8,9.9,0.5
				c2.8-0.2,5.2,0,6.3-1.3l-2.3-1.4l-3.2-1.1c0,0-4,0.5-6.8-0.7c-1.9-0.9-2.9-1.8-3.5-3.6l2.2-6.3c1.1-1.2,1.5-2.4,1.3-4
				c-0.3-2.4-2.5-3.3-4.8-4.4c-3.3-1.6-6-1.6-9.3,0c-3.8,1.6-6,2.8-9.3,5.1c-3.3,2.4-6.2,3.5-7.5,7.2c-0.7,1.8-1,3.2-0.5,5
				c-0.7,0.1-1.6,0.5-2.9,1.3c-2.7,1.6-6.6,0.9-7.6-1.8c-0.8-2,0.2-4.1,2.3-5.1l2.1-4.7c1.3-1.2,1.9-2.8,1.3-4.5
				c-0.5-1.4-1.8-2.4-3.4-3c0,0-3.7,0-3,4.2c0.6,4.2-1.1,3.3-1.3,4.8c-0.3,2.3-1.9,3.2-2.6,5.3c-0.6,1.5-0.9,2.8-0.9,4.1
				c-0.5,0.1-1,0.2-1.6,0.2c-2.9,0-4.8-1.6-7.7-1.7c-4.2-0.3-5.6-2.7-4.3-6c1-2.6,3.9-3.4,4.3-6.1c0.7-3-2.8-3-5.3-3.4
				c-3.7-0.6-5.3,2.3-8.4,3.9c-7.3,4.2-18.3,11.5-18.3,11.5s3.2-6.5,3.4-11.1c0-3.1,0.4-5.7-2.5-7.6c-1.7-1.1-3.7-1.2-5.6-0.3
				c-3.2,2.3-5,3.6-8.3,5.8c-3.1,2-4.7,3.1-7.8,5l-0.3-12.3c-0.8-0.9-1.4-1.3-2.4-1.7c-1.4-0.3-2.5-0.3-3.8,0.3c0,0-4.1,2.2-6.6,3.6
				c-9.9,5.7-12.4,12.5-22.7,17.9c-3.9,2-7.2,2.7-7.2,2.7l0,0.1c-3.5,1.1-7.9,3-10.7,3.2c-2.2,0.2-4.2,0.6-5.9-0.6
				c-1.4-1-3.4-3.5-3-5.9l-1.1-3.1c1.7-0.7,4.6-0.2,7.6,0.4c3.6,0.7,7.2,1.4,8.4-0.3c1.4-1.7,2.4-5.1,2.7-7.2
				c0.4-2.1,0.7-3.5-0.6-5.2c-1.4-2-3.4-2.6-6-2.8c-3.2-0.4-5,0.5-7.7,1.8c-2.7,1.4-4.6,3.1-6.5,5.5c-0.4,0.4-4.3,2.9-6.2,3.6
				c-1.3,0.4-2.5,0.5-3.2,1c-1.3,0.7,0.7,2.8,0.5,3.3c-0.1,0.3,1.2,0.1,2.6,0c1.5-0.1,3-0.3,2.8,0c-0.8,2.6,0,1.2,0.7,3.9l0.4,3.7
				l-3,1.1c0,0-8.3-0.1-10.8-1.5c-2.2-1.3-3.3-3.2-3.3-5.5c1.2-1.7,1.8-2.6,2.2-4.5c0.7-2.8,0.5-4.5-0.5-7c0,0-0.6-4.7-7.7-0.6
				c-3.4,1.7-9,7-9,7l0.7-4.8c1.9-4.8,2.7-6.7,2.9-9.9c0.6-4.9,1.3-7.6,1.7-12.5l0.4-11H107z"/>
		</defs>
		<linearGradient id="SVGID_5_" gradientUnits="userSpaceOnUse" x1="4.6248" y1="33.0355" x2="323.5804" y2="33.0355">
			<stop  offset="6.134970e-03" style="stop-color:#568C45"/>
			<stop  offset="1" style="stop-color:#ABD037"/>
		</linearGradient>
		<use xlink:href="#SVGID_4_"  style="overflow:visible;fill:url(#SVGID_5_);"/>
		<clipPath id="SVGID_6_">
			<use xlink:href="#SVGID_4_"  style="overflow:visible;"/>
		</clipPath>
	</g>
</g>
</svg>
